<svg xmlns="http://www.w3.org/2000/svg" fill="white" viewBox="0 0 16 16"><path d="M 11.767615,2.4175788e-6 C 8.6086536,0.63133542 5.3725176,2.2541374 3.1655586,4.1574504 c -1.021291,0.923587 -2.141001,2.032863 -2.25283096,3.486329 -0.06727,1.289391 0.54380796,2.6552366 1.75133296,3.2220746 1.693632,0.869985 3.688797,0.37572 5.322057,-0.385884 2.1197364,-1.0315536 4.1176644,-2.6897526 4.9184264,-4.9737526 0.04886,-0.157132 0.06976,-0.229983 0.106521,-0.390255 l -0.806263,-0.05882 c -0.03039,0.09524 -0.09785,0.307029 -0.144103,0.447488 -0.90176,2.738436 -3.7088294,4.8142816 -6.6231064,4.6086766 -0.618111,-0.07546 -1.485466,-0.2652596 -1.572866,-1.0114496 -0.09538,-1.118212 0.786874,-2.000855 1.527351,-2.723211 1.424701,-1.340363 3.408031,-1.899525 5.3104854,-2.110002 0.761357,-0.0645 1.537229,-0.04375 2.28301,0.124369 -0.2955,-1.403871 -0.607732,-2.806154 -0.903308,-4.21069298 -0.125995,0.01807 -0.190619,0.02447 -0.248985,0.03383 -0.0255,-0.05587 -0.0378,-0.10341 -0.06567,-0.2161490024212 z M 13.43013,5.3227984 c -0.55726,2.192302 -2.197148,3.929694 -4.0836184,5.0891566 -1.893674,1.164324 -4.145342,1.981191 -6.393322,1.680228 -0.703901,-0.07729 -1.455381,-0.486939 -1.936542,-0.847164 0.329183,1.020941 0.565373,2.076206 0.953299,3.075067 0.710788,1.112767 2.114659,1.46577 3.346106,1.625755 2.810594,0.279284 5.8263984,-0.516678 7.8945004,-2.502592 0.885391,-0.867248 1.559943,-1.967272 1.881733,-3.165439 C 14.552607,8.6227944 13.984138,6.9749664 13.43013,5.3227984 Z"
     style="fill:#ffffff;stroke-width:0.0133575"/></svg>