<svg xmlns="http://www.w3.org/2000/svg" fill="white" viewBox="0 0 16 16"><path d="M8.012.06a.48.48 0 0 0-.381.198l-1.084 1.41C4.812 3.816 2.757 5.826.514 7.365c-.179.138-.442.272-.498.502-.059.206.049.375.177.504a29.428 29.428 0 0 1 5.041 4.379c.271.284.492.57.756.836.447.596.895 1.25 1.383 1.832.45.537.755.509 1.21.034 2.162-2.256 4.096-4.822 6.644-6.669.264-.234.766-.322.773-.76a.692.692 0 0 0-.309-.51 26.814 26.814 0 0 1-3.85-3.154l-1.316-1.375a37.933 37.933 0 0 1-1.54-1.865L8.386.271a.45.45 0 0 0-.375-.21ZM7.96 2.14c.398-.007.808.236 1.113.497.465.356.951.758 1.416 1.193 1.217 1.117 2.31 2.331 3.211 3.617.147.224.275.478.194.776-.3.749-.91 1.345-1.442 2-1.153 1.24-2.37 2.441-3.73 3.398-.276.194-.647.377-.977.22-1.002-.523-1.847-1.384-2.725-2.167-1.017-.943-2.036-2.041-2.808-3.188-.115-.16-.147-.362-.145-.574.1-.397.37-.72.627-1.055.912-1.16 2.028-2.26 3.211-3.32.54-.47 1.02-.844 1.53-1.209a.864.864 0 0 1 .525-.187Zm.072.87c-.03-.003-.059.015-.117.054C6.291 4.19 4.703 5.727 3.432 7.297l-.002.002c-.157.224-.319.404-.395.531-.08.136-.09.144-.049.244l.002.002v.002c.084.212.362.47.625.86a24.383 24.383 0 0 0 4.24 4.007c.189.12.197.094.387-.02.184-.108.424-.343.744-.548 1.024-.81 1.99-1.807 2.916-2.793l.086-.105c.388-.467.77-.904 1.04-1.346a.585.585 0 0 0-.055-.28c-1.124-1.623-2.61-3.082-4.198-4.36-.24-.17-.45-.347-.6-.42-.074-.038-.109-.06-.14-.063Zm-.054.697c.31.86.622 1.72.945 2.57l-.647.01-.013.08.09 2.166a9.67 9.67 0 0 1-.772.002l.1-2.219V6.3c-.18-.018-.407 0-.59-.018l.732-2.103Zm2.376 2.43a.125.125 0 0 1 .118.125v.736a.25.25 0 0 1 .072.008c.556.168.941.362 1.121.691.09.165.1.38.018.551-.083.172-.23.303-.42.42-.763.467-2.208.675-3.721.615-.757-.03-1.441-.13-1.986-.285-.546-.154-.962-.338-1.178-.666a.625.625 0 0 1-.066-.559c.07-.177.207-.31.38-.425.346-.231.86-.402 1.528-.518a.25.25 0 0 1 .289.205.25.25 0 0 1-.203.29c-.627.108-1.095.277-1.336.439a.52.52 0 0 0-.194.193c-.015.038-.018.042.02.1.076.115.4.32.894.46s1.147.237 1.871.266c1.449.058 2.883-.198 3.442-.54.14-.086.208-.166.228-.21.021-.043.023-.048-.003-.096-.05-.09-.303-.28-.756-.43v.722a.125.125 0 0 1-.205.095l-1.18-.984a.125.125 0 0 1 0-.192l1.18-.982a.125.125 0 0 1 .087-.03zM7.551 9.533c.289.011.574.015.853.008l.104 2.314c-.357.052-.733.022-1.067-.007.06-.793.073-1.531.11-2.315z"/></svg>