<svg xmlns="http://www.w3.org/2000/svg" fill="white" viewBox="0 0 16 16"><path d="M4.212 10.157a4.726 4.726 0 0 0-.218.176c1.117 1.647 2.844 3.04 4.918 3.04.477 0 .975-.057 1.458-.204.048-.25.078-.497.091-.726a4.774 4.774 0 0 1-1.731.308c-1.9 0-3.482-1.185-4.517-2.594zm.592-.378a5.229 5.229 0 0 0-.295.174c.97 1.317 2.446 2.422 4.22 2.422.573 0 1.182-.089 1.74-.34a3.247 3.247 0 0 0-.09-.721c-.574.28-1.227.376-1.837.376-1.557 0-2.861-.863-3.738-1.911Zm.912-.41c.664.58 1.574 1.022 2.637 1.022.558 0 1.016-.084 1.392-.237-.832-.865-2.145-1.035-2.658-1.035a4.277 4.277 0 0 0-1.372.25zm-2.86 2.882c0 2.206 3.436 3.449 4.765 3.449 1.576 0 2.314-1 2.634-2.058a5.57 5.57 0 0 1-1.342.158c-2.2 0-4.033-1.459-5.227-3.191-.503.501-.83 1.077-.83 1.642zm2.599-2.785a5.495 5.495 0 0 0-.392.177c.823.962 2.035 1.748 3.48 1.748.698 0 1.278-.124 1.745-.366a2.494 2.494 0 0 0-.367-.669c-.422.187-.94.29-1.568.289-1.178 0-2.181-.517-2.898-1.18zm-.698-1.312c.26-.701.349-1.495.366-1.862-.372.281-.58.647-.58 1.078 0 .228.077.5.214.784zm.356-2.165a2.423 2.423 0 0 0-.08-.512c-.658.37-1.123.896-1.123 1.617 0 .48.193 1.086.542 1.692.068-.105.127-.22.183-.338-.223-.39-.347-.77-.347-1.078 0-.572.298-1.044.825-1.38ZM3.13 4.255c-.996 0-3.13.822-3.13 2.34 0 1.626 1.808 2.633 2.986 2.826-.513-1.03-.797-2.063-.797-2.876 0-.952.5-1.7 1.246-2.276a3.114 3.114 0 0 0-.305-.015Zm1.8.948a1.491 1.491 0 0 0-.224-.358c-.82.456-1.428 1.095-1.428 1.976 0 .677.276 1.553.765 2.41.08-.06.155-.127.223-.202-.418-.69-.655-1.389-.655-1.934 0-.858.554-1.474 1.32-1.892Zm-.525-.617a1.789 1.789 0 0 0-.398-.2c-.819.534-1.39 1.24-1.39 2.16 0 .817.302 1.868.844 2.901.092-.008.178-.025.259-.051-.522-.916-.818-1.852-.818-2.576 0-.992.633-1.717 1.503-2.234Zm7.294.238c.114-.313.176-.598.199-.8-.602-.61-1.467-1.043-2.72-1.043-.774 0-2.223.187-3.564.65a4.078 4.078 0 0 0-.105.44c1.108-.4 2.323-.565 3.118-.566 1.37 0 2.382.532 3.072 1.32zm-4.166.85c-.398 0-.762.034-1.093.094.843.622 2.05 1.047 2.834 1.047.382 0 .714-.087 1.002-.23-.772-.792-2.06-.911-2.743-.911Zm0-.255c.743 0 2.154.131 2.98 1.03.172-.113.329-.248.467-.4-.634-.8-1.657-1.28-2.9-1.28a7.396 7.396 0 0 0-2.29.374c.108.145.24.285.39.418a6.076 6.076 0 0 1 1.353-.142ZM8.977.301c-1.698 0-2.723 1.603-3.191 2.82 1.292-.406 2.62-.569 3.392-.569 1.152 0 2.04.353 2.717.91-.091-1.195-.722-3.16-2.918-3.16Zm2.203 5.506c.145-.195.264-.406.364-.614-.628-.786-1.588-1.312-2.916-1.312-.7 0-1.992.169-3.133.6.022.143.068.282.135.41a7.555 7.555 0 0 1 2.45-.422c1.32 0 2.409.502 3.1 1.338zm.713 5.582c.16.096.333.173.512.228.516-.826.847-2.012.847-3.696 0-.238-.02-.752-.136-1.36a4.998 4.998 0 0 0-.47.065c.125.462.19.938.19 1.417 0 1.58-.384 2.638-.943 3.346zm-.731-.658c.125.16.268.308.425.439.525-.66.873-1.65.873-3.127 0-.451-.059-.9-.176-1.336a4.876 4.876 0 0 0-.512.162 3.92 3.92 0 0 1 .216 1.296c0 1.218-.33 2.029-.826 2.566zm-.514-.903c.092.222.203.444.338.652.466-.536.704-1.307.704-2.315 0-.423-.071-.817-.196-1.178a2.981 2.981 0 0 0-.496.289c.102.291.165.622.165 1.011 0 .646-.18 1.156-.515 1.54zm2.908-3.277c.082.452.124.91.124 1.37 0 1.7-.332 2.916-.837 3.787.086.01.174.015.261.016 2.38 0 2.896-2.215 2.896-3.177 0-1.541-1.577-1.956-2.444-1.996m-2.65 1.737c0-.315-.044-.59-.12-.834-.268.258-.442.577-.442.966 0 .315.066.72.205 1.14.238-.329.358-.753.358-1.272z"/></svg>