<svg
   width="138"
   height="20"
   viewBox="0 0 138 20"
   fill="none"
   xmlns="http://www.w3.org/2000/svg">
<path
  d="M 0.2784123,19.015739 V 2.2157394 h 3.12 V 19.015739 Z m 12.8640057,0.24 q -1.968,0 -3.7679998,-0.552 -1.8,-0.576 -2.856,-1.464 l 1.08,-2.424 q 1.008,0.792 2.4959998,1.32 1.488,0.528 3.048,0.528 1.32,0 2.136,-0.288 0.816,-0.288 1.2,-0.768 0.384,-0.504 0.384,-1.128 0,-0.768 -0.552,-1.224 -0.552,-0.48 -1.44,-0.744 -0.864,-0.288 -1.944,-0.528 -1.056,-0.24 -2.136,-0.552 -1.0559998,-0.336 -1.9439998,-0.84 -0.864,-0.528 -1.416,-1.3919996 -0.552,-0.864 -0.552,-2.208 0,-1.368 0.72,-2.496 0.744,-1.152 2.232,-1.824 1.5119998,-0.696 3.8159998,-0.696 1.512,0 3,0.384 1.488,0.384 2.592,1.104 l -0.984,2.424 q -1.128,-0.672 -2.328,-0.984 -1.2,-0.336 -2.304,-0.336 -1.296,0 -2.112,0.312 -0.792,0.312 -1.176,0.816 -0.3599998,0.504 -0.3599998,1.152 0,0.768 0.5279998,1.248 0.552,0.456 1.416,0.72 0.888,0.264 1.968,0.528 1.08,0.24 2.136,0.552 1.08,0.3119996 1.944,0.8159996 0.888,0.504 1.416,1.368 0.552,0.864 0.552,2.184 0,1.344 -0.744,2.496 -0.72,1.128 -2.232,1.824 -1.512,0.672 -3.816,0.672 z m 9.887993,-0.24 V 2.2157394 h 3.12 V 19.015739 Z m 15.432006,0.24 q -1.92,0 -3.576,-0.624 -1.632,-0.648 -2.856,-1.8 -1.2,-1.176 -1.872,-2.76 -0.672,-1.584 -0.672,-3.456 0,-1.8719996 0.672,-3.4559996 0.672,-1.584 1.896,-2.736 1.224,-1.176 2.856,-1.8 1.632,-0.648 3.576,-0.648 2.064,0 3.768,0.72 1.704,0.696 2.88,2.088 l -2.016,1.896 q -0.912,-0.984 -2.04,-1.464 -1.128,-0.504 -2.448,-0.504 -1.32,0 -2.424,0.432 -1.08,0.432 -1.896,1.224 -0.792,0.792 -1.248,1.872 -0.432,1.08 -0.432,2.3759996 0,1.296 0.432,2.376 0.456,1.08 1.248,1.872 0.816,0.792 1.896,1.224 1.104,0.432 2.424,0.432 1.32,0 2.448,-0.48 1.128,-0.504 2.04,-1.512 l 2.016,1.92 q -1.176,1.368 -2.88,2.088 -1.704,0.72 -3.792,0.72 z m 6.714715,-0.24 7.56,-16.7999996 h 3.072 l 7.584,16.7999996 h -3.264 l -6.504,-15.1439996 h 1.248 l -6.48,15.1439996 z m 3.48,-3.888 0.84,-2.448 h 9.072 l 0.84,2.448 z m 22.080013,4.128 q -1.968,0 -3.768,-0.552 -1.8,-0.576 -2.856,-1.464 l 1.08,-2.424 q 1.008,0.792 2.496,1.32 1.488,0.528 3.048,0.528 1.32,0 2.136,-0.288 0.816,-0.288 1.2,-0.768 0.384,-0.504 0.384,-1.128 0,-0.768 -0.552,-1.224 -0.552,-0.48 -1.44,-0.744 -0.864,-0.288 -1.944,-0.528 -1.056,-0.24 -2.136,-0.552 -1.056,-0.336 -1.944,-0.84 -0.864,-0.528 -1.416,-1.3919996 -0.552,-0.864 -0.552,-2.208 0,-1.368 0.72,-2.496 0.744,-1.152 2.232,-1.824 1.512,-0.696 3.816,-0.696 1.512,0 3,0.384 1.488,0.384 2.592,1.104 l -0.984,2.424 q -1.128,-0.672 -2.328,-0.984 -1.2,-0.336 -2.304,-0.336 -1.296,0 -2.112,0.312 -0.792,0.312 -1.176,0.816 -0.36,0.504 -0.36,1.152 0,0.768 0.528,1.248 0.552,0.456 1.416,0.72 0.888,0.264 1.968,0.528 1.08,0.24 2.136,0.552 1.08,0.3119996 1.944,0.8159996 0.888,0.504 1.416,1.368 0.552,0.864 0.552,2.184 0,1.344 -0.744,2.496 -0.72,1.128 -2.232,1.824 -1.512,0.672 -3.816,0.672 z m 8.471993,-0.24 v -2.088 l 6.672,-6.336 q 0.84,-0.7919996 1.248,-1.3919996 0.408,-0.6 0.528,-1.104 0.144,-0.528 0.144,-0.984 0,-1.152 -0.792,-1.776 -0.792,-0.648 -2.328,-0.648 -1.224,0 -2.232,0.432 -0.984,0.432 -1.704,1.32 l -2.184,-1.68 q 0.984,-1.32 2.64,-2.04 1.68,-0.744 3.744,-0.744 1.824,0 3.168,0.6 1.368,0.576 2.088,1.656 0.744,1.08 0.744,2.568 0,0.816 -0.216,1.632 -0.216,0.792 -0.816,1.6799996 -0.6,0.888 -1.752,1.992 l -5.736,5.448 -0.648,-1.176 h 9.816 v 2.64 z m 21.192022,0.24 q -1.992005,0 -3.600005,-1.008 -1.584,-1.008 -2.496,-2.928 -0.912,-1.944 -0.912,-4.704 0,-2.7599996 0.912,-4.6799996 0.912,-1.944 2.496,-2.952 1.608,-1.008 3.600005,-1.008 2.016,0 3.6,1.008 1.584,1.008 2.496,2.952 0.936,1.92 0.936,4.6799996 0,2.76 -0.936,4.704 -0.912,1.92 -2.496,2.928 -1.584,1.008 -3.6,1.008 z m 0,-2.712 q 1.176,0 2.04,-0.624 0.864,-0.648 1.344,-1.968 0.504,-1.32 0.504,-3.336 0,-2.0399996 -0.504,-3.3359996 -0.48,-1.32 -1.344,-1.944 -0.864,-0.648 -2.04,-0.648 -1.128005,0 -2.016005,0.648 -0.864,0.624 -1.368,1.944 -0.48,1.296 -0.48,3.3359996 0,2.016 0.48,3.336 0.504,1.32 1.368,1.968 0.888,0.624 2.016005,0.624 z m 8.89683,2.472 v -2.088 l 6.672,-6.336 q 0.84,-0.7919996 1.248,-1.3919996 0.408,-0.6 0.528,-1.104 0.144,-0.528 0.144,-0.984 0,-1.152 -0.792,-1.776 -0.792,-0.648 -2.328,-0.648 -1.224,0 -2.232,0.432 -0.984,0.432 -1.704,1.32 l -2.184,-1.68 q 0.984,-1.32 2.64,-2.04 1.68,-0.744 3.744,-0.744 1.824,0 3.168,0.6 1.368,0.576 2.088,1.656 0.744,1.08 0.744,2.568 0,0.816 -0.216,1.632 -0.216,0.792 -0.816,1.6799996 -0.6,0.888 -1.752,1.992 l -5.736,5.448 -0.648,-1.176 h 9.816 v 2.64 z m 21.45602,0.24 q -2.28,0 -3.912,-0.96 -1.632,-0.984 -2.496,-2.832 -0.864,-1.848 -0.864,-4.56 0,-2.8799996 1.032,-4.8719996 1.056,-1.992 2.904,-3.024 1.872,-1.032 4.296,-1.032 1.272,0 2.424,0.264 1.176,0.264 1.992,0.816 l -1.152,2.352 q -0.696,-0.456 -1.512,-0.624 -0.792,-0.192 -1.68,-0.192 -2.376,0 -3.768,1.464 -1.392,1.464 -1.392,4.3199996 0,0.456 0.024,1.08 0.024,0.6 0.168,1.224 l -0.96,-1.056 q 0.432,-0.984 1.176,-1.6319996 0.768,-0.672 1.8,-1.008 1.056,-0.336 2.28,-0.336 1.656,0 2.952,0.648 1.296,0.624 2.064,1.7999996 0.768,1.152 0.768,2.712 0,1.656 -0.816,2.88 -0.816,1.224 -2.208,1.896 -1.392,0.672 -3.12,0.672 z m -0.168,-2.448 q 0.96,0 1.704,-0.336 0.744,-0.36 1.152,-1.008 0.432,-0.648 0.432,-1.512 0,-1.32 -0.912,-2.088 -0.912,-0.768 -2.448,-0.768 -1.008,0 -1.776,0.384 -0.744,0.36 -1.2,1.008 -0.432,0.648 -0.432,1.488 0,0.768 0.408,1.416 0.408,0.648 1.176,1.032 0.792,0.384 1.896,0.384 z"
  id="textisicas2026"
  fill="black"
/>
</svg>
