<svg
   width="210"
   height="20"
   viewBox="0 0 210 20"
   fill="none"
   xmlns="http://www.w3.org/2000/svg">
<path
  d="m 203.37725,19.138981 c -1.47881,0 -2.71116,-0.369705 -3.82028,-0.985879 -0.98588,-0.73941 -1.72529,-1.732991 -2.34146,-2.96534 -0.49294,-1.355584 -0.73941,-2.834403 -0.73941,-4.682927 0,-1.971758 0.3697,-3.573812 0.98588,-4.929397 0.61617,-1.232348 1.47882,-2.218228 2.71117,-2.957638 1.10911,-0.616174 2.46469,-0.985878 3.94351,-0.985878 0.73941,0 1.47882,0.123234 2.095,0.246469 0.73941,0.123235 1.35558,0.369705 1.85622,0.616174 l -0.50064,1.109115 c -0.49294,-0.369705 -0.98588,-0.492939 -1.60205,-0.616174 -0.49294,-0.123235 -1.10912,-0.246471 -1.84853,-0.246471 -1.84852,0 -3.45057,0.616175 -4.68292,1.848525 -1.10912,1.355584 -1.72529,3.204107 -1.72529,5.668805 0,0.369705 0,0.862645 0.12323,1.478819 0,0.616175 0.12324,1.109114 0.24647,1.725289 l -0.3697,-0.123235 c 0.12323,-0.985879 0.3697,-1.725289 0.98588,-2.464698 0.49294,-0.616175 1.10911,-1.109114 1.97176,-1.478819 0.86264,-0.369705 1.72528,-0.616175 2.71116,-0.616175 1.10912,0 2.21823,0.24647 3.08088,0.616175 0.86264,0.49294 1.48652,1.109114 1.97946,1.848524 0.49294,0.739409 0.73941,1.725288 0.73941,2.711168 0,1.109114 -0.24647,1.971758 -0.73941,2.71887 -0.49294,0.862644 -1.24005,1.478819 -2.1027,1.848524 -0.86264,0.369704 -1.84852,0.616174 -2.95764,0.616174 z m 0,-1.109114 c 0.86265,0 1.72529,-0.123235 2.34147,-0.49294 0.73941,-0.246469 1.23235,-0.739409 1.60205,-1.363286 0.36971,-0.616174 0.62388,-1.355584 0.62388,-2.218228 0,-1.232349 -0.50064,-2.218229 -1.24005,-2.957638 -0.86265,-0.73941 -1.97176,-1.109114 -3.45058,-1.109114 -0.98588,0 -1.84852,0.246469 -2.58793,0.616174 -0.61618,0.369705 -1.23235,0.862645 -1.60206,1.478819 -0.3697,0.616175 -0.61617,1.232349 -0.61617,2.094994 0,0.616174 0.12323,1.232349 0.49294,1.848523 0.49294,0.616175 0.98588,1.116817 1.72529,1.609756 0.73941,0.369705 1.60205,0.49294 2.71116,0.49294 z m -20.71888,0.985872 v -0.862645 l 7.27856,-7.278562 c 0.73941,-0.616174 1.23235,-1.232349 1.60206,-1.848523 0.3697,-0.49294 0.49293,-0.98588 0.61617,-1.355585 0.12323,-0.492939 0.24647,-0.862644 0.24647,-1.355584 0,-1.109114 -0.36971,-1.971757 -1.10911,-2.587933 -0.73941,-0.616174 -1.84853,-0.862643 -3.20411,-0.862643 -1.10912,0 -2.095,0.123235 -2.95764,0.492939 -0.74711,0.246469 -1.48652,0.739408 -2.1027,1.478819 l -0.86264,-0.862646 c 0.61617,-0.739408 1.47882,-1.232347 2.4724,-1.725288 1.10911,-0.369704 2.21823,-0.616174 3.45058,-0.616174 1.23235,0 2.09499,0.24647 2.95764,0.616174 0.86264,0.369704 1.47881,0.862645 1.97175,1.478819 0.36971,0.739411 0.61618,1.602054 0.61618,2.464699 0,0.616174 0,1.109114 -0.24647,1.602053 -0.12324,0.616175 -0.36971,1.109115 -0.73941,1.725289 -0.49294,0.616175 -0.98588,1.232349 -1.72529,2.094994 l -6.90886,6.785622 -0.3697,-0.49294 h 10.85237 v 1.109115 z m -8.87291,0.123242 c -1.24005,0 -2.4724,-0.369705 -3.45828,-0.985879 -0.98588,-0.73941 -1.84852,-1.732991 -2.34146,-3.088575 -0.61617,-1.355584 -0.86264,-2.834403 -0.86264,-4.682927 0,-1.725289 0.24647,-3.327342 0.86264,-4.682927 0.49294,-1.232348 1.35558,-2.218228 2.34146,-2.957638 0.98588,-0.739409 2.21823,-1.109113 3.45828,-1.109113 1.35559,0 2.58794,0.369704 3.57382,1.109113 0.98588,0.73941 1.84852,1.72529 2.34146,2.957638 0.61617,1.355585 0.86264,2.957638 0.86264,4.682927 0,1.848524 -0.24647,3.327343 -0.86264,4.682927 -0.49294,1.355584 -1.35558,2.349165 -2.34146,3.088575 -0.98588,0.616174 -2.21823,0.985879 -3.57382,0.985879 z m 0,-1.109114 c 1.10912,0 2.095,-0.369705 2.95764,-0.985879 0.86265,-0.500642 1.47882,-1.363287 1.84852,-2.595636 0.49294,-1.109114 0.73941,-2.464698 0.73941,-4.066752 0,-1.602054 -0.24647,-2.957638 -0.73941,-4.066752 -0.3697,-1.109114 -0.98587,-1.971758 -1.84852,-2.587933 -0.86264,-0.616174 -1.84852,-0.862644 -2.95764,-0.862644 -0.99358,0 -1.97946,0.24647 -2.8421,0.862644 -0.86265,0.616175 -1.47882,1.478819 -1.97176,2.587933 -0.36971,1.109114 -0.61617,2.464698 -0.61617,4.066752 0,1.602054 0.24646,2.957638 0.61617,4.066752 0.49294,1.232349 1.10911,2.094994 1.97176,2.595636 0.86264,0.616174 1.84852,0.985879 2.8421,0.985879 z m -20.47239,0.985872 v -0.862645 l 7.27086,-7.278562 c 0.61618,-0.616174 1.24005,-1.232349 1.48652,-1.848523 0.36971,-0.49294 0.61618,-0.98588 0.73941,-1.355585 0.12324,-0.492939 0.24647,-0.862644 0.24647,-1.355584 0,-1.109114 -0.3697,-1.971757 -1.10911,-2.587933 -0.74711,-0.616174 -1.85623,-0.862643 -3.33505,-0.862643 -1.10911,0 -1.97176,0.123235 -2.8344,0.492939 -0.86264,0.246469 -1.47882,0.739408 -2.09499,1.478819 l -0.86265,-0.862646 c 0.61618,-0.739408 1.47882,-1.232347 2.4647,-1.725288 0.98588,-0.369704 2.21823,-0.616174 3.45058,-0.616174 1.10911,0 2.09499,0.24647 2.96534,0.616174 0.86264,0.369704 1.47882,0.862645 1.84852,1.478819 0.49294,0.739411 0.73941,1.602054 0.73941,2.464699 0,0.616174 -0.12323,1.109114 -0.24647,1.602053 -0.12323,0.616175 -0.49294,1.109115 -0.86264,1.725289 -0.36971,0.616175 -0.98588,1.232349 -1.72529,2.094994 l -6.78562,6.785622 -0.49294,-0.49294 h 10.97561 v 1.109115 z m -15.04236,0.369712 c -1.48652,0 -2.8421,-0.123235 -4.07445,-0.49294 -1.35559,-0.369704 -2.4647,-0.862644 -3.20411,-1.355584 l 1.60205,-3.704749 c 0.73941,0.492939 1.60206,0.985879 2.58794,1.232349 1.10911,0.369705 2.09499,0.49294 3.08857,0.49294 0.61617,0 1.23235,0 1.60205,-0.123235 0.36971,-0.123235 0.73941,-0.369705 0.86265,-0.49294 0.24647,-0.24647 0.3697,-0.49294 0.3697,-0.73941 0,-0.369704 -0.24647,-0.739409 -0.61617,-0.985879 -0.36971,-0.24647 -0.73941,-0.369705 -1.35559,-0.492939 -0.61617,-0.24647 -1.24005,-0.369705 -1.97946,-0.49294 -0.61617,-0.123235 -1.35558,-0.369705 -2.09499,-0.616175 -0.61617,-0.123235 -1.23235,-0.492939 -1.84852,-0.862644 -0.61618,-0.369705 -1.10912,-0.862644 -1.35559,-1.478819 -0.3697,-0.616175 -0.61617,-1.355584 -0.61617,-2.218228 0,-1.109115 0.24647,-1.971759 0.86264,-2.834404 0.61618,-0.862643 1.47882,-1.478819 2.58794,-1.971758 1.10911,-0.616174 2.46469,-0.862645 4.19768,-0.862645 1.10912,0 2.21823,0.123236 3.32735,0.369706 1.10911,0.369704 2.09499,0.739409 2.95764,1.232348 l -1.47882,3.573813 c -0.86265,-0.49294 -1.72529,-0.73941 -2.4647,-0.985879 -0.86265,-0.24647 -1.60206,-0.369705 -2.34147,-0.369705 -0.7394,0 -1.24005,0.123235 -1.60975,0.24647 -0.49294,0.123235 -0.73941,0.369704 -0.86265,0.492939 -0.24647,0.246471 -0.3697,0.492941 -0.3697,0.862645 0,0.369705 0.24647,0.616174 0.61617,0.862644 0.24647,0.24647 0.73941,0.369705 1.35559,0.49294 0.62387,0.24647 1.24005,0.369705 1.97946,0.492939 0.61617,0.123235 1.35558,0.369705 2.09499,0.49294 0.61618,0.24647 1.23235,0.616175 1.84853,0.985879 0.61617,0.369705 1.10911,0.862645 1.35558,1.355584 0.3697,0.616175 0.61617,1.355584 0.61617,2.341464 0,0.985879 -0.3697,1.848523 -0.86264,2.711168 -0.61617,0.870346 -1.47882,1.609756 -2.58793,2.102696 -1.10912,0.492939 -2.4647,0.739409 -4.18999,0.739409 z m -27.25803,-0.369712 7.64827,-17.26059 h 4.80616 l 7.64827,17.26059 h -5.06034 L 120.01653,4.219848 h 1.97176 l -6.03851,14.795891 z m 4.19769,-3.335045 1.23235,-3.573813 h 8.37997 l 1.35559,3.573813 z M 104.358,19.385451 c -1.36329,0 -2.71887,-0.24647 -3.82799,-0.616175 -1.109112,-0.492939 -2.218228,-1.109114 -2.957637,-1.848523 -0.862644,-0.870347 -1.602054,-1.856226 -2.094994,-2.96534 -0.369704,-0.98588 -0.616174,-2.218229 -0.616174,-3.573813 0,-1.232349 0.24647,-2.464698 0.616174,-3.573812 0.49294,-1.109114 1.23235,-2.094993 2.094994,-2.834403 0.739409,-0.862644 1.848525,-1.478819 2.957637,-1.848524 1.10912,-0.492939 2.4647,-0.73941 3.82799,-0.73941 1.60205,0 2.95763,0.369706 4.18998,0.862645 1.35559,0.616174 2.34147,1.355584 3.20411,2.464699 l -3.08087,2.834402 c -0.61618,-0.739409 -1.23235,-1.232348 -1.84853,-1.602054 -0.73941,-0.246469 -1.47882,-0.492939 -2.21822,-0.492939 -0.73941,0 -1.36329,0.123235 -1.97947,0.369704 -0.61617,0.24647 -1.10911,0.616176 -1.47881,0.98588 -0.49294,0.49294 -0.86265,0.985879 -0.98588,1.602054 -0.246472,0.616174 -0.369712,1.232349 -0.369712,1.971758 0,0.73941 0.12324,1.478819 0.369712,2.094994 0.12323,0.616174 0.49294,1.109114 0.98588,1.478819 0.3697,0.492939 0.86264,0.862644 1.47881,0.985879 0.61618,0.24647 1.24006,0.369705 1.97947,0.369705 0.7394,0 1.47881,-0.123235 2.21822,-0.49294 0.61618,-0.369705 1.23235,-0.862644 1.84853,-1.478819 l 3.08087,2.834403 c -0.86264,0.993582 -1.84852,1.732991 -3.20411,2.349166 -1.23235,0.616174 -2.58793,0.862644 -4.18998,0.862644 z M 87.705878,19.015739 V 1.755149 h 4.813864 v 17.26059 z m -9.620025,0.369712 c -1.478818,0 -2.834402,-0.123235 -4.066751,-0.49294 -1.355584,-0.369704 -2.341463,-0.862644 -3.204108,-1.355584 l 1.602054,-3.704749 c 0.73941,0.492939 1.602054,0.985879 2.711168,1.232349 0.98588,0.369705 1.971757,0.49294 2.957637,0.49294 0.739409,0 1.232349,0 1.602053,-0.123235 0.500642,-0.123235 0.747112,-0.369705 0.993582,-0.49294 0.123235,-0.24647 0.24647,-0.49294 0.24647,-0.73941 0,-0.369704 -0.24647,-0.739409 -0.49294,-0.985879 -0.377407,-0.24647 -0.870346,-0.369705 -1.486521,-0.492939 -0.616175,-0.24647 -1.232349,-0.369705 -1.848524,-0.49294 C 76.360565,12.106889 75.621156,11.860419 75.004981,11.613949 74.265572,11.490714 73.649397,11.12101 73.033223,10.751305 72.417048,10.3816 72.047344,9.888661 71.677639,9.272486 71.307934,8.656311 71.061464,7.916902 71.061464,7.054258 c 0,-1.109115 0.369705,-1.971759 0.862645,-2.834404 0.616174,-0.862643 1.478819,-1.478819 2.587933,-1.971758 1.109114,-0.616174 2.587931,-0.862645 4.189985,-0.862645 1.232349,0 2.349166,0.123236 3.335045,0.369706 1.109114,0.369704 2.094993,0.739409 2.957638,1.232348 l -1.478819,3.573813 c -0.862644,-0.49294 -1.602054,-0.73941 -2.464698,-0.985879 -0.73941,-0.24647 -1.609756,-0.369705 -2.349166,-0.369705 -0.616174,0 -1.232349,0.123235 -1.602054,0.24647 -0.369703,0.123235 -0.739408,0.369704 -0.862642,0.492939 -0.24647,0.246471 -0.24647,0.492941 -0.24647,0.862645 0,0.369705 0.123235,0.616174 0.492939,0.862644 0.369705,0.24647 0.862643,0.369705 1.355583,0.49294 0.616174,0.24647 1.232349,0.369705 1.971758,0.492939 0.747112,0.123235 1.363287,0.369705 2.102696,0.49294 0.73941,0.24647 1.355584,0.616175 1.848524,0.985879 0.616174,0.369705 1.109114,0.862645 1.478819,1.355584 0.369704,0.616175 0.492939,1.355584 0.492939,2.341464 0,0.985879 -0.246469,1.848523 -0.862644,2.711168 -0.616175,0.870346 -1.355584,1.609756 -2.587933,2.102696 -1.109114,0.492939 -2.472401,0.739409 -4.197689,0.739409 z M 64.029372,19.015739 V 1.755149 h 4.813864 v 17.26059 z m -23.18356,0 V 1.755149 H 54.28612 l 0.123235,3.820281 h -8.749679 v 9.735559 h 8.996148 v 3.70475 z m 4.444159,-6.908858 V 8.409834 l 8.010269,0.123235 v 3.573812 z M 24.571094,19.015739 V 1.755149 H 38.134637 V 5.57543 h -8.757382 v 9.735559 h 9.003851 l 0.123235,3.70475 z m 4.436457,-6.908858 0.123235,-3.697047 7.894736,0.123235 0.123235,3.573812 z M 8.4119163,19.015739 8.2886814,1.755149 H 21.852224 V 5.57543 h -8.749679 l 0.123235,9.735559 h 9.003851 v 3.70475 z M 12.856075,12.106881 V 8.409834 l 8.010269,0.123235 v 3.573812 z M 0.2784123,19.015739 V 1.755149 h 4.9293964 v 17.26059 z"
  id="textieeeisicas2026"
  fill="black"
/>
</svg>
